<svg width="100" height="101" viewBox="0 0 100 101" fill="none" xmlns="http://www.w3.org/2000/svg">
<rect y="0.336426" width="100" height="100" rx="5" fill="white"/>
<path d="M48.3334 64.3365H51.6934C52.9734 64.3365 53.8 63.4298 53.56 62.3232L53.0133 59.9099H47.0133L46.4667 62.3232C46.2267 63.3632 47.1334 64.3365 48.3334 64.3365Z" stroke="#292D32" stroke-width="1.5" stroke-linecap="round" stroke-linejoin="round"/>
<path d="M53.0134 59.8967L55.3201 57.8433C56.6134 56.6966 56.6667 55.8965 55.6401 54.6032L51.5734 49.4433C50.7201 48.3633 49.3201 48.3633 48.4667 49.4433L44.4001 54.6032C43.3734 55.8965 43.3734 56.7366 44.7201 57.8433L47.0267 59.8967" stroke="#292D32" stroke-width="1.5" stroke-linecap="round" stroke-linejoin="round"/>
<path d="M50.0134 49.1633V52.5367" stroke="#292D32" stroke-width="1.5" stroke-linecap="round" stroke-linejoin="round"/>
<path d="M50.6933 41.0032H49.3599C48.6266 41.0032 48.0266 40.4032 48.0266 39.6698V38.3365C48.0266 37.6032 48.6266 37.0032 49.3599 37.0032H50.6933C51.4266 37.0032 52.0266 37.6032 52.0266 38.3365V39.6698C52.0266 40.4032 51.4266 41.0032 50.6933 41.0032Z" stroke="#292D32" stroke-width="1.5" stroke-linecap="round" stroke-linejoin="round"/>
<path d="M38.3599 53.2298H39.6933C40.4266 53.2298 41.0266 52.6298 41.0266 51.8965V50.5632C41.0266 49.8298 40.4266 49.2297 39.6933 49.2297H38.3599C37.6266 49.2297 37.0266 49.8298 37.0266 50.5632V51.8965C37.0266 52.6298 37.6266 53.2298 38.3599 53.2298Z" stroke="#292D32" stroke-width="1.5" stroke-linecap="round" stroke-linejoin="round"/>
<path d="M61.6401 53.2298H60.3067C59.5734 53.2298 58.9734 52.6298 58.9734 51.8965V50.5632C58.9734 49.8298 59.5734 49.2297 60.3067 49.2297H61.6401C62.3734 49.2297 62.9734 49.8298 62.9734 50.5632V51.8965C62.9734 52.6298 62.3734 53.2298 61.6401 53.2298Z" stroke="#292D32" stroke-width="1.5" stroke-linecap="round" stroke-linejoin="round"/>
<path d="M48.0267 39.0833C42.9467 39.6833 39 43.9899 39 49.2299" stroke="#292D32" stroke-width="1.5" stroke-linecap="round" stroke-linejoin="round"/>
<path d="M60.9999 49.2299C60.9999 44.0032 57.0799 39.7099 52.0266 39.0833" stroke="#292D32" stroke-width="1.5" stroke-linecap="round" stroke-linejoin="round"/>
</svg>
