<svg width="100" height="101" viewBox="0 0 100 101" fill="none" xmlns="http://www.w3.org/2000/svg">
<rect y="0.336426" width="100" height="100" rx="5" fill="white"/>
<path d="M36.6667 47.6696V53.003C36.6667 55.6696 38 57.003 40.6667 57.003H42.5734C43.0667 57.003 43.56 57.1496 43.9867 57.403L47.88 59.843C51.24 61.9496 54 60.4163 54 56.4563V44.2163C54 40.243 51.24 38.723 47.88 40.8296L43.9867 43.2696C43.56 43.523 43.0667 43.6696 42.5734 43.6696H40.6667C38 43.6696 36.6667 45.003 36.6667 47.6696Z" stroke="#292D32" stroke-width="1.5"/>
<path d="M58 45.0032C60.3733 48.1632 60.3733 52.5098 58 55.6698" stroke="#292D32" stroke-width="1.5" stroke-linecap="round" stroke-linejoin="round"/>
<path d="M60.44 41.6697C64.2933 46.803 64.2933 53.8697 60.44 59.003" stroke="#292D32" stroke-width="1.5" stroke-linecap="round" stroke-linejoin="round"/>
</svg>
